<svg width="1440" height="1000" viewBox="0 0 1440 1000" fill="none" xmlns="http://www.w3.org/2000/svg">
<path d="M847.875 404.167C847.875 416.911 843.137 429.207 834.567 438.709C825.996 448.21 814.193 454.25 801.412 455.675C788.631 457.1 775.768 453.81 765.281 446.433C754.793 439.056 747.416 428.11 744.558 415.686H695.442C692.584 428.11 685.207 439.056 674.719 446.432C664.232 453.809 651.369 457.099 638.589 455.674C625.808 454.249 614.005 448.209 605.434 438.708C596.863 429.207 592.125 416.91 592.125 404.167C592.125 391.424 596.863 379.128 605.434 369.627C614.005 360.125 625.808 354.086 638.589 352.661C651.369 351.236 664.232 354.526 674.719 361.902C685.207 369.279 692.584 380.225 695.442 392.649H744.558C747.416 380.225 754.793 369.278 765.281 361.902C775.768 354.525 788.631 351.235 801.412 352.66C814.193 354.085 825.996 360.125 834.567 369.626C843.137 379.127 847.875 391.424 847.875 404.167ZM894.375 306.263H853.978L785.827 209.799C783.64 206.734 780.735 204.242 777.361 202.535C773.987 200.828 770.246 199.959 766.458 200.001C762.671 200.044 758.95 200.997 755.616 202.779C752.282 204.561 749.435 207.118 747.319 210.231L720 250.976L692.681 210.231C690.565 207.118 687.718 204.561 684.384 202.779C681.05 200.997 677.329 200.044 673.542 200.001C669.754 199.959 666.013 200.828 662.639 202.535C659.265 204.242 656.36 206.734 654.173 209.799L586.022 306.263H545.625C542.542 306.263 539.585 307.477 537.405 309.637C535.225 311.797 534 314.727 534 317.781C534 320.836 535.225 323.766 537.405 325.926C539.585 328.086 542.542 329.3 545.625 329.3H894.375C897.458 329.3 900.415 328.086 902.595 325.926C904.775 323.766 906 320.836 906 317.781C906 314.727 904.775 311.797 902.595 309.637C900.415 307.477 897.458 306.263 894.375 306.263Z" fill="#191919"/>
</svg>
