<svg width="1440" height="1000" viewBox="0 0 1440 1000" fill="none" xmlns="http://www.w3.org/2000/svg">
<path d="M911.969 615.977C911.969 635.324 904.875 653.994 892.042 668.419C879.209 682.845 861.536 692.015 842.399 694.178C823.262 696.341 804.002 691.346 788.299 680.147C772.596 668.947 761.55 652.328 757.271 633.464H683.729C679.45 652.328 668.404 668.946 652.701 680.146C636.998 691.345 617.738 696.34 598.602 694.177C579.465 692.014 561.792 682.844 548.959 668.419C536.126 653.993 529.032 635.324 529.032 615.977C529.032 596.63 536.126 577.961 548.959 563.536C561.792 549.11 579.465 539.94 598.602 537.777C617.738 535.614 636.998 540.609 652.701 551.808C668.404 563.008 679.45 579.626 683.729 598.49H757.271C761.55 579.626 772.596 563.007 788.299 551.807C804.002 540.608 823.262 535.613 842.399 537.776C861.536 539.939 879.209 549.109 892.042 563.535C904.875 577.96 911.969 596.63 911.969 615.977ZM981.594 467.334H921.107L819.063 320.877C815.789 316.224 811.439 312.44 806.388 309.849C801.336 307.258 795.734 305.938 790.062 306.002C784.391 306.067 778.82 307.514 773.828 310.219C768.836 312.924 764.573 316.807 761.405 321.533L720.5 383.395L679.595 321.533C676.427 316.807 672.164 312.924 667.172 310.219C662.18 307.514 656.609 306.067 650.938 306.002C645.266 305.938 639.664 307.258 634.612 309.849C629.561 312.44 625.211 316.224 621.937 320.877L519.893 467.334H459.406C454.79 467.334 450.362 469.177 447.098 472.456C443.834 475.736 442 480.184 442 484.822C442 489.46 443.834 493.907 447.098 497.187C450.362 500.467 454.79 502.309 459.406 502.309H981.594C986.21 502.309 990.638 500.467 993.902 497.187C997.166 493.907 999 489.46 999 484.822C999 480.184 997.166 475.736 993.902 472.456C990.638 469.177 986.21 467.334 981.594 467.334Z" fill="#191919"/>
</svg>
