<svg width="681" height="659" viewBox="0 0 681 659" fill="none" xmlns="http://www.w3.org/2000/svg">
<path d="M501.939 485.724C504.536 483.212 507.515 481.255 510.622 479.567L462.186 432.675C460.188 430.744 457.479 429.66 454.656 429.662C451.832 429.664 449.125 430.752 447.13 432.685C445.134 434.618 444.015 437.24 444.017 439.972C444.019 442.705 445.142 445.324 447.14 447.255L495.47 494.024C497.261 491.007 499.435 488.219 501.939 485.724Z" fill="#7CFC00" fill-opacity="0.45"/>
<path d="M606.516 638.406C592.321 638.406 578.956 633.052 568.89 623.332L494.406 551.253C484.361 541.513 478.828 528.6 478.828 514.844C478.828 501.087 484.361 488.175 494.406 478.434C513.687 459.776 550.354 459.776 569.635 478.434L644.12 550.512C654.186 560.253 659.719 573.165 659.719 586.922C659.719 600.678 654.186 613.591 644.141 623.332C634.096 633.072 620.71 638.406 606.516 638.406ZM532.031 484.365C523.621 484.257 515.507 487.365 509.452 493.014C503.429 498.842 500.109 506.606 500.109 514.844C500.109 523.081 503.429 530.845 509.452 536.694L583.936 608.772C596.003 620.428 617.007 620.428 629.074 608.772C635.118 602.923 638.438 595.159 638.438 586.922C638.438 578.684 635.118 570.92 629.095 565.072L554.611 492.994C548.547 487.36 540.437 484.26 532.031 484.365Z" fill="#7CFC00" fill-opacity="0.45"/>
<path opacity="0.4" d="M276.656 462.33C273.834 462.33 271.128 461.245 269.132 459.314C267.137 457.383 266.016 454.764 266.016 452.033C266.016 449.302 267.137 446.683 269.132 444.752C271.128 442.821 273.834 441.736 276.656 441.736C356.823 441.736 426.37 392.229 449.737 318.565C450.146 317.271 450.815 316.067 451.705 315.023C452.595 313.979 453.689 313.115 454.924 312.48C456.159 311.846 457.511 311.452 458.903 311.323C460.295 311.194 461.7 311.331 463.037 311.728C464.375 312.124 465.618 312.771 466.697 313.632C467.776 314.494 468.669 315.552 469.325 316.747C469.981 317.942 470.387 319.251 470.521 320.598C470.654 321.945 470.512 323.305 470.103 324.599C443.948 406.994 366.229 462.33 276.656 462.33Z" fill="#7CFC00"/>
<path d="M276.656 514.844C135.838 514.844 21.2812 403.988 21.2812 267.719C21.2812 131.45 135.838 20.5938 276.656 20.5938C417.474 20.5938 532.031 131.45 532.031 267.719C532.031 403.988 417.474 514.844 276.656 514.844ZM276.656 41.1875C147.585 41.1875 42.5625 142.818 42.5625 267.719C42.5625 392.62 147.585 494.25 276.656 494.25C405.727 494.25 510.75 392.62 510.75 267.719C510.75 142.818 405.727 41.1875 276.656 41.1875Z" fill="#7CFC00" fill-opacity="0.45"/>
<path d="M468.188 278.016C474.064 278.016 478.828 273.406 478.828 267.719C478.828 262.032 474.064 257.422 468.188 257.422C462.311 257.422 457.547 262.032 457.547 267.719C457.547 273.406 462.311 278.016 468.188 278.016Z" fill="#7CFC00" fill-opacity="0.45"/>
</svg>
