<?xml version="1.0" ?><!DOCTYPE svg  PUBLIC '-//W3C//DTD SVG 1.1//EN'  'http://www.w3.org/Graphics/SVG/1.1/DTD/svg11.dtd'><svg height="512px" style="enable-background:new 0 0 512 512;" version="1.1" viewBox="0 0 512 512" width="512px" xml:space="preserve" xmlns="http://www.w3.org/2000/svg" xmlns:xlink="http://www.w3.org/1999/xlink"><g id="_x35_51_x2C__Alert_x2C__antivirus_x2C__attack_x2C__computer_x2C__virus"><g><path d="M165.672,238.947c0.323,26.773,3.98,51.895,10.22,73.895    c8.261-1.498,16.541-2.754,24.816-3.732c13.817-1.621,27.63-2.51,41.461-2.662v-67.5H165.672z M176.046,156.912    c-6.317,22.123-10.051,47.489-10.374,74.508h76.497v-68.143C220.14,163.032,198.076,160.922,176.046,156.912z M242.169,75.705    c-20.193,1.896-38.615,19.001-52.323,45.652c-4.39,8.537-8.293,18.053-11.595,28.334c21.31,3.825,42.623,5.875,63.918,6.09V75.705    z M313.646,149.783c-3.319-10.342-7.223-19.889-11.627-28.456c-13.708-26.621-32.129-43.726-52.323-45.622v80.076    C271.01,155.597,292.334,153.578,313.646,149.783z M276.854,78.52c12.132,8.629,22.979,22.153,31.838,39.381    c4.71,9.148,8.872,19.398,12.393,30.476c16.459-3.274,32.922-7.619,49.385-13.065c-3.643-4.56-7.527-8.904-11.658-13.004    C336.855,100.336,308.537,84.762,276.854,78.52z M170.814,148.283c3.52-11.045,7.665-21.234,12.36-30.354    c8.858-17.227,19.692-30.781,31.824-39.38c-31.67,6.212-59.988,21.786-81.943,43.757c-4.117,4.1-8.001,8.444-11.659,13.004    C137.874,140.695,154.351,145.041,170.814,148.283z M158.162,231.42c0.319-27.446,4.085-53.271,10.479-75.914    c-17.351-3.488-34.699-8.109-52.049-13.893c-18.373,25.336-29.48,56.301-30.259,89.807H158.162z M168.473,314.25    c-6.289-22.49-9.992-48.101-10.311-75.303H86.333c0.779,33.291,11.75,64.043,29.876,89.286    C133.638,322.42,151.048,317.738,168.473,314.25z M170.631,321.471c-16.554,3.305-33.095,7.681-49.631,13.097    c3.074,3.886,6.334,7.589,9.76,11.168c22.261,23.193,51.481,39.655,84.284,46.112c-13.234-9.395-24.921-24.633-34.179-44.063    C177.026,339.707,173.597,330.896,170.631,321.471z M315.852,157.005c-22.048,3.978-44.094,6.089-66.155,6.272v68.143h76.497    C325.889,204.432,322.168,179.096,315.852,157.005z M449.198,148.131c-3.043-3.061-7.269-4.926-11.933-4.926    c-4.668,0-8.89,1.865-11.936,4.926c-3.043,3.06-4.924,7.282-4.924,11.934c0,4.65,1.881,8.873,4.924,11.934    c3.046,3.029,7.268,4.926,11.936,4.926c4.664,0,8.89-1.896,11.933-4.926c3.046-3.061,4.927-7.283,4.927-11.934    C454.125,155.413,452.244,151.19,449.198,148.131z M74.538,130.323c-3.046-3.061-7.268-4.927-11.936-4.927    c-4.664,0-8.89,1.866-11.918,4.927c-3.06,3.06-4.941,7.282-4.941,11.933c0,4.682,1.881,8.874,4.927,11.934    c3.043,3.061,7.269,4.926,11.933,4.926c4.667,0,8.89-1.865,11.918-4.926c3.061-3.06,4.959-7.252,4.959-11.934    C79.479,137.605,77.581,133.383,74.538,130.323z M134.189,387.38c-3.046-3.06-7.269-4.957-11.936-4.957    c-4.65,0-8.872,1.897-11.918,4.957c-3.042,3.03-4.941,7.251-4.941,11.902s1.898,8.874,4.941,11.935    c3.046,3.059,7.269,4.956,11.918,4.956c4.667,0,8.89-1.897,11.936-4.956c3.06-3.061,4.955-7.283,4.955-11.935    c0-4.559-1.821-8.72-4.759-11.749L134.189,387.38z M242.215,386.982l-0.046-0.521v-72.487c-13.525,0.123-27.079,1.01-40.605,2.6    c-7.833,0.92-15.666,2.082-23.5,3.489c2.787,8.751,5.998,16.952,9.578,24.479c13.038,27.354,30.782,45.653,50.488,49.509    L242.215,386.982z M283.308,315.749c-11.199-1.102-22.412-1.683-33.611-1.806v60.065L283.308,315.749z M327.633,238.947h-77.936    v67.5c12.575,0.122,25.153,0.826,37.727,2.172L327.633,238.947z M363.998,231.42h41.535    c-0.779-33.506-11.869-64.439-30.245-89.807c-17.333,5.845-34.698,10.496-52.05,13.983c6.166,21.817,9.869,46.571,10.406,72.916    l11.336-19.644c1.024-1.806,3.319-2.417,5.109-1.377c0.61,0.336,1.088,0.826,1.407,1.408L363.998,231.42z M396.142,289.343    c2.66-7.344,4.772-14.933,6.334-22.734c1.79-8.966,2.843-18.206,3.058-27.661h-37.359L396.142,289.343z M393.568,300.113    l-0.182-0.337l-34.699-62.481c-0.122-0.184-0.245-0.398-0.318-0.582l-10.206-18.389L229.746,423.578h232.364L393.568,300.113z     M355.445,264.16h-19.154v100.913h19.154V264.16z M332.528,256.663h26.679c2.082,0,3.766,1.683,3.766,3.733v108.441    c0,2.049-1.684,3.763-3.766,3.763h-26.679c-2.081,0-3.766-1.714-3.766-3.763V260.396    C328.763,258.346,330.447,256.663,332.528,256.663z M359.207,414.031h-26.679c-2.081,0-3.766-1.683-3.766-3.764v-23.285    c0-2.051,1.685-3.733,3.766-3.733h26.679c2.082,0,3.766,1.683,3.766,3.733v23.285    C362.973,412.349,361.289,414.031,359.207,414.031z M282.619,36.783c4.896,0.979,6.181-6.426,1.38-7.404    c-2.51-0.459-5.019-0.857-7.56-1.256c-4.619-0.917-6.058,6.609-1.299,7.406L282.619,36.783z M311.201,44.25    c0.41,0.152,1.253,0.244,1.744,0.152c3.944-0.795,4.373-5.783,0.643-7.282c-2.418-0.826-4.836-1.622-7.283-2.356    c-4.162-1.652-6.931,5.294-2.632,7.039C306.06,42.689,308.752,43.424,311.201,44.25z M338.326,55.815    c5.4,2.143,7.236-5.201,3.411-6.7l-6.854-3.396c-5.109-2.051-7.299,5.17-3.183,6.823L338.326,55.815z M363.461,71.207    c0.491,0.367,1.33,0.703,2.096,0.703c3.779,0,5.25-4.59,2.281-6.823c-1.959-1.407-4.254-3.121-6.304-4.345    c-4.576-2.754-8.048,3.916-4.131,6.273C359.439,68.392,361.471,69.769,363.461,71.207z M386.104,90.116    c3.411,3.396,8.826-1.806,5.232-5.416c-1.821-1.774-3.702-3.519-5.601-5.231c-3.303-3.305-8.673,1.958-5.016,5.63    C382.539,86.689,384.359,88.402,386.104,90.116z M405.765,112.086c2.938,3.916,8.935-0.611,6.012-4.528    c-1.562-2.05-3.197-4.069-4.833-6.028c-3.688-3.701-8.676,0.949-5.77,4.805C402.735,108.23,404.28,110.158,405.765,112.086z     M422.041,136.719c2.678,4.467,8.967,0.336,6.549-3.703c-1.238-2.234-2.555-4.406-3.856-6.578c-0.502-0.857-1.422-1.53-2.31-1.714    c-3.457-0.674-5.783,2.814-4.099,5.6C419.578,132.434,420.834,134.576,422.041,136.719z M444.594,199.996    c1.024,5.078,8.338,3.334,7.419-1.316c-0.365-2.418-0.934-5.08-1.467-7.496c-0.951-4.682-8.356-3.428-7.359,1.561    C443.629,195.131,444.242,197.547,444.594,199.996z M447.576,229.34c0,4.742,7.528,4.895,7.528-0.093    c0-2.509-0.186-5.263-0.368-7.772c0-4.559-7.496-4.682-7.496,0.063C447.271,224.076,447.485,226.77,447.576,229.34z     M446.292,258.806c-0.874,4.376,6.395,6.211,7.465,0.856l0.765-7.588c0-5.722-7.496-4.805-7.496-0.611L446.292,258.806z     M440.723,287.782c-1.07,5.446,6.426,6.212,7.282,1.927l1.853-7.403c1.025-5.11-6.411-6.304-7.331-1.685L440.723,287.782z     M430.99,315.596c-1.958,4.896,5.159,7.344,6.886,3.029c1.025-2.355,1.959-4.712,2.938-7.099c1.867-4.682-5.292-7.037-7.005-2.724    C432.949,311.067,431.97,313.363,430.99,315.596z M280.296,433.981c-5.109,1.009-3.337,8.323,1.268,7.404    c2.495-0.397,5.063-0.887,7.545-1.438c4.71-0.949,3.411-8.354-1.562-7.344C285.206,433.155,282.665,433.583,280.296,433.981z     M250.922,436.857c-4.791,0-4.85,7.496,0.214,7.496c2.538-0.061,5.11-0.121,7.619-0.306c4.65,0,4.772-7.527-0.446-7.527    C255.909,436.734,253.354,436.766,250.922,436.857z M221.456,435.45c-1.53-0.306-3.337,0.888-3.843,2.111    c-1.053,2.631,0.382,4.834,2.955,5.323c2.523,0.307,5.092,0.613,7.619,0.796c5.721,0,4.833-7.496,0.611-7.496    C226.352,435.97,223.902,435.725,221.456,435.45z M192.523,429.759c-5.492-1.102-6.211,6.396-1.972,7.252l7.405,1.896    c5.169,1.01,6.271-6.425,1.712-7.344L192.523,429.759z M164.725,419.906c-4.896-1.959-7.328,5.141-3.029,6.885l7.082,2.938    c1.99,0.795,4.148-0.307,4.836-2.021c0.842-2.11-0.231-4.222-2.095-4.956L164.725,419.906z M88.551,361.342    c-1.193-1.592-3.625-1.807-5.173-0.644c-1.758,1.315-1.973,3.642-0.688,5.354c1.562,2.02,3.243,3.947,4.896,5.905    c3.962,3.948,8.735-1.896,5.675-4.957C91.671,365.196,90.036,363.238,88.551,361.342z M71.797,337.046    c-2.569-4.284-8.995-0.368-6.472,3.824c1.285,2.203,2.632,4.406,3.994,6.548c2.295,3.826,8.752,0.766,6.458-3.855    C74.46,341.391,73.082,339.249,71.797,337.046z M58.794,310.609c-1.744-4.346-8.844-1.867-6.977,2.814    c0.916,2.325,1.958,4.712,2.983,7.007c0.505,1.255,1.944,2.264,3.334,2.264c2.832,0,4.604-2.661,3.534-5.293    C60.689,315.137,59.682,312.873,58.794,310.609z M49.796,282.488c-1.007-4.957-8.813-2.692-7.311,1.775    c0.597,2.478,1.222,4.957,1.927,7.404c0.888,4.406,8.293,3.244,7.251-2.02C50.989,287.262,50.378,284.906,49.796,282.488z     M45.023,253.42c0-4.253-7.497-4.926-7.497,0.459c0.186,2.57,0.492,5.232,0.829,7.803c1.098,5.538,8.307,3.273,7.464-0.948    C45.514,258.438,45.132,255.715,45.023,253.42z M44.518,223.893c0-5.445-7.51-4.865-7.51-0.397    c-0.137,2.54-0.214,5.079-0.274,7.619c0,5.141,7.496,4.957,7.496,0.152C44.349,228.818,44.381,226.34,44.518,223.893z     M48.283,194.641c0.961-4.865-6.395-6.334-7.359-1.469l-1.407,7.527c-0.919,4.59,6.394,6.303,7.437,1.193L48.283,194.641z     M109.724,86.383c3.78-3.763-1.85-8.781-5.096-5.537l-5.538,5.262c-3.548,3.551,1.821,8.813,5.278,5.355L109.724,86.383z     M132.873,68.086c3.58-2.143,1.057-8.385-3.934-6.396c-2.155,1.347-4.496,3.06-6.563,4.591c-4.022,3.028,0.583,8.995,4.467,6.058    C128.819,70.9,130.837,69.463,132.873,68.086z M158.422,53.367c3.488-1.406,2.66-8.047-2.769-6.976    c-2.355,0.948-5.064,2.448-7.328,3.672c-4.682,2.784-0.306,8.935,3.517,6.64C154,55.54,156.218,54.408,158.422,53.367z     M185.87,42.536c5.261-2.081,1.699-8.751-2.267-7.16c-2.415,0.765-4.847,1.56-7.25,2.417c-4.956,1.959-1.744,8.781,2.509,7.068    C181.188,44.065,183.511,43.271,185.87,42.536z M214.602,35.865c5.229-1.04,3.302-8.322-1.179-7.404    c-2.509,0.367-5.05,0.795-7.542,1.316c-4.896,0.979-3.366,8.322,1.436,7.373C209.734,36.691,212.167,36.232,214.602,35.865z     M236.263,26.166c-4.696,0-4.801,7.496,0.354,7.496c6.026-0.306,10.739-0.092,16.705-0.092c5.278,0,4.882-7.496,0.26-7.496    C247.662,26.074,242.201,25.859,236.263,26.166z M78.742,469.354c-2.081,0-3.762-1.684-3.762-3.765    c0-2.08,1.681-3.763,3.762-3.763h273.72c2.063,0,3.763,1.683,3.763,3.763c0,2.081-1.699,3.765-3.763,3.765H78.742z     M239.018,485.999c-2.081,0-3.762-1.684-3.762-3.765c0-2.08,1.681-3.763,3.762-3.763h189.418c2.067,0,3.766,1.683,3.766,3.763    c0,2.081-1.698,3.765-3.766,3.765H239.018z M447.822,485.999c-2.081,0-3.766-1.684-3.766-3.765c0-2.08,1.685-3.763,3.766-3.763    h23.682c2.082,0,3.763,1.683,3.763,3.763c0,2.081-1.681,3.765-3.763,3.765H447.822z M67.958,485.479    c-2.081,0-3.762-1.683-3.762-3.764c0-2.05,1.681-3.732,3.762-3.732h89.759c2.067,0,3.749,1.683,3.749,3.732    c0,2.081-1.681,3.764-3.749,3.764H67.958z M336.291,406.504h19.154v-15.758h-19.154V406.504z" style="fill-rule:evenodd;clip-rule:evenodd;"/></g></g><g id="Layer_1"/></svg>