<svg viewBox="0 0 512 512" xml:space="preserve" xmlns="http://www.w3.org/2000/svg" enable-background="new 0 0 512 512"><path d="M165.672 238.947c.323 26.773 3.98 51.895 10.22 73.895a406.682 406.682 0 0 1 24.816-3.732 392.513 392.513 0 0 1 41.461-2.662v-67.5h-76.497zm10.374-82.035c-6.317 22.123-10.051 47.489-10.374 74.508h76.497v-68.143c-22.029-.245-44.093-2.355-66.123-6.365zm66.123-81.207c-20.193 1.896-38.615 19.001-52.323 45.652-4.39 8.537-8.293 18.053-11.595 28.334 21.31 3.825 42.623 5.875 63.918 6.09V75.705zm71.477 74.078c-3.319-10.342-7.223-19.889-11.627-28.456-13.708-26.621-32.129-43.726-52.323-45.622v80.076c21.314-.184 42.638-2.203 63.95-5.998zM276.854 78.52c12.132 8.629 22.979 22.153 31.838 39.381 4.71 9.148 8.872 19.398 12.393 30.476 16.459-3.274 32.922-7.619 49.385-13.065a151.778 151.778 0 0 0-11.658-13.004c-21.957-21.972-50.275-37.546-81.958-43.788zm-106.04 69.763c3.52-11.045 7.665-21.234 12.36-30.354 8.858-17.227 19.692-30.781 31.824-39.38-31.67 6.212-59.988 21.786-81.943 43.757a156.833 156.833 0 0 0-11.659 13.004c16.478 5.385 32.955 9.731 49.418 12.973zm-12.652 83.137c.319-27.446 4.085-53.271 10.479-75.914-17.351-3.488-34.699-8.109-52.049-13.893-18.373 25.336-29.48 56.301-30.259 89.807h71.829zm10.311 82.83c-6.289-22.49-9.992-48.101-10.311-75.303H86.333c.779 33.291 11.75 64.043 29.876 89.286 17.429-5.813 34.839-10.495 52.264-13.983zm2.158 7.221c-16.554 3.305-33.095 7.681-49.631 13.097 3.074 3.886 6.334 7.589 9.76 11.168 22.261 23.193 51.481 39.655 84.284 46.112-13.234-9.395-24.921-24.633-34.179-44.063-3.839-8.078-7.268-16.889-10.234-26.314zm145.221-164.466c-22.048 3.978-44.094 6.089-66.155 6.272v68.143h76.497c-.305-26.988-4.026-52.324-10.342-74.415zm133.346-8.874c-3.043-3.061-7.269-4.926-11.933-4.926-4.668 0-8.89 1.865-11.936 4.926a16.88 16.88 0 0 0-4.924 11.934c0 4.65 1.881 8.873 4.924 11.934a16.892 16.892 0 0 0 11.936 4.926c4.664 0 8.89-1.896 11.933-4.926a16.873 16.873 0 0 0 4.927-11.934c0-4.652-1.881-8.875-4.927-11.934zm-374.66-17.808c-3.046-3.061-7.268-4.927-11.936-4.927-4.664 0-8.89 1.866-11.918 4.927a16.823 16.823 0 0 0-4.941 11.933c0 4.682 1.881 8.874 4.927 11.934 3.043 3.061 7.269 4.926 11.933 4.926 4.667 0 8.89-1.865 11.918-4.926 3.061-3.06 4.959-7.252 4.959-11.934-.001-4.651-1.899-8.873-4.942-11.933zm59.651 257.057a16.791 16.791 0 0 0-11.936-4.957c-4.65 0-8.872 1.897-11.918 4.957-3.042 3.03-4.941 7.251-4.941 11.902s1.898 8.874 4.941 11.935a16.784 16.784 0 0 0 11.918 4.956c4.667 0 8.89-1.897 11.936-4.956 3.06-3.061 4.955-7.283 4.955-11.935 0-4.559-1.821-8.72-4.759-11.749l-.196-.153zm108.026-.398-.046-.521v-72.487c-13.525.123-27.079 1.01-40.605 2.6a390.769 390.769 0 0 0-23.5 3.489c2.787 8.751 5.998 16.952 9.578 24.479 13.038 27.354 30.782 45.653 50.488 49.509l4.085-7.069zm41.093-71.233c-11.199-1.102-22.412-1.683-33.611-1.806v60.065l33.611-58.259zm44.325-76.802h-77.936v67.5c12.575.122 25.153.826 37.727 2.172l40.209-69.672zm36.365-7.527h41.535c-.779-33.506-11.869-64.439-30.245-89.807-17.333 5.845-34.698 10.496-52.05 13.983 6.166 21.817 9.869 46.571 10.406 72.916l11.336-19.644a3.72 3.72 0 0 1 5.109-1.377c.61.336 1.088.826 1.407 1.408l12.502 22.521zm32.144 57.923a157.5 157.5 0 0 0 6.334-22.734 159.73 159.73 0 0 0 3.058-27.661h-37.359l27.967 50.395zm-2.574 10.77-.182-.337-34.699-62.481a3.415 3.415 0 0 1-.318-.582l-10.206-18.389-118.417 205.254H462.11l-68.542-123.465zm-38.123-35.953h-19.154v100.913h19.154V264.16zm-22.917-7.497h26.679c2.082 0 3.766 1.683 3.766 3.733v108.441c0 2.049-1.684 3.763-3.766 3.763h-26.679c-2.081 0-3.766-1.714-3.766-3.763V260.396c.001-2.05 1.685-3.733 3.766-3.733zm26.679 157.368h-26.679a3.763 3.763 0 0 1-3.766-3.764v-23.285c0-2.051 1.685-3.733 3.766-3.733h26.679c2.082 0 3.766 1.683 3.766 3.733v23.285a3.762 3.762 0 0 1-3.766 3.764zM282.619 36.783c4.896.979 6.181-6.426 1.38-7.404-2.51-.459-5.019-.857-7.56-1.256-4.619-.917-6.058 6.609-1.299 7.406l7.479 1.254zm28.582 7.467c.41.152 1.253.244 1.744.152 3.944-.795 4.373-5.783.643-7.282a202.496 202.496 0 0 0-7.283-2.356c-4.162-1.652-6.931 5.294-2.632 7.039 2.387.886 5.079 1.621 7.528 2.447zm27.125 11.565c5.4 2.143 7.236-5.201 3.411-6.7l-6.854-3.396c-5.109-2.051-7.299 5.17-3.183 6.823l6.626 3.273zm25.135 15.392c.491.367 1.33.703 2.096.703 3.779 0 5.25-4.59 2.281-6.823-1.959-1.407-4.254-3.121-6.304-4.345-4.576-2.754-8.048 3.916-4.131 6.273 2.036 1.377 4.068 2.754 6.058 4.192zm22.643 18.909c3.411 3.396 8.826-1.806 5.232-5.416a198.678 198.678 0 0 0-5.601-5.231c-3.303-3.305-8.673 1.958-5.016 5.63 1.82 1.59 3.64 3.303 5.385 5.017zm19.661 21.97c2.938 3.916 8.935-.611 6.012-4.528a173.565 173.565 0 0 0-4.833-6.028c-3.688-3.701-8.676.949-5.77 4.805a225.69 225.69 0 0 1 4.591 5.751zm16.276 24.633c2.678 4.467 8.967.336 6.549-3.703-1.238-2.234-2.555-4.406-3.856-6.578-.502-.857-1.422-1.53-2.31-1.714-3.457-.674-5.783 2.814-4.099 5.6a323.597 323.597 0 0 1 3.716 6.395zm22.553 63.277c1.024 5.078 8.338 3.334 7.419-1.316-.365-2.418-.934-5.08-1.467-7.496-.951-4.682-8.356-3.428-7.359 1.561.442 2.386 1.055 4.802 1.407 7.251zm2.982 29.344c0 4.742 7.528 4.895 7.528-.093 0-2.509-.186-5.263-.368-7.772 0-4.559-7.496-4.682-7.496.063.031 2.538.245 5.232.336 7.802zm-1.284 29.466c-.874 4.376 6.395 6.211 7.465.856l.765-7.588c0-5.722-7.496-4.805-7.496-.611l-.734 7.343zm-5.569 28.976c-1.07 5.446 6.426 6.212 7.282 1.927l1.853-7.403c1.025-5.11-6.411-6.304-7.331-1.685l-1.804 7.161zm-9.733 27.814c-1.958 4.896 5.159 7.344 6.886 3.029 1.025-2.355 1.959-4.712 2.938-7.099 1.867-4.682-5.292-7.037-7.005-2.724-.86 2.265-1.839 4.561-2.819 6.794zM280.296 433.981c-5.109 1.009-3.337 8.323 1.268 7.404 2.495-.397 5.063-.887 7.545-1.438 4.71-.949 3.411-8.354-1.562-7.344-2.341.552-4.882.98-7.251 1.378zm-29.374 2.876c-4.791 0-4.85 7.496.214 7.496 2.538-.061 5.11-.121 7.619-.306 4.65 0 4.772-7.527-.446-7.527-2.4.214-4.955.246-7.387.337zm-29.466-1.407c-1.53-.306-3.337.888-3.843 2.111-1.053 2.631.382 4.834 2.955 5.323 2.523.307 5.092.613 7.619.796 5.721 0 4.833-7.496.611-7.496a299.001 299.001 0 0 1-7.342-.734zm-28.933-5.691c-5.492-1.102-6.211 6.396-1.972 7.252l7.405 1.896c5.169 1.01 6.271-6.425 1.712-7.344l-7.145-1.804zm-27.798-9.853c-4.896-1.959-7.328 5.141-3.029 6.885l7.082 2.938c1.99.795 4.148-.307 4.836-2.021.842-2.11-.231-4.222-2.095-4.956l-6.794-2.846zm-76.174-58.564c-1.193-1.592-3.625-1.807-5.173-.644-1.758 1.315-1.973 3.642-.688 5.354 1.562 2.02 3.243 3.947 4.896 5.905 3.962 3.948 8.735-1.896 5.675-4.957a129.475 129.475 0 0 1-4.71-5.658zm-16.754-24.296c-2.569-4.284-8.995-.368-6.472 3.824a201.138 201.138 0 0 0 3.994 6.548c2.295 3.826 8.752.766 6.458-3.855-1.317-2.172-2.695-4.314-3.98-6.517zm-13.003-26.437c-1.744-4.346-8.844-1.867-6.977 2.814.916 2.325 1.958 4.712 2.983 7.007.505 1.255 1.944 2.264 3.334 2.264 2.832 0 4.604-2.661 3.534-5.293-.979-2.264-1.986-4.528-2.874-6.792zm-8.998-28.121c-1.007-4.957-8.813-2.692-7.311 1.775.597 2.478 1.222 4.957 1.927 7.404.888 4.406 8.293 3.244 7.251-2.02a187.441 187.441 0 0 1-1.867-7.159zm-4.773-29.068c0-4.253-7.497-4.926-7.497.459.186 2.57.492 5.232.829 7.803 1.098 5.538 8.307 3.273 7.464-.948-.305-2.296-.687-5.019-.796-7.314zm-.505-29.527c0-5.445-7.51-4.865-7.51-.397-.137 2.54-.214 5.079-.274 7.619 0 5.141 7.496 4.957 7.496.152.119-2.449.151-4.927.288-7.374zm3.765-29.252c.961-4.865-6.395-6.334-7.359-1.469l-1.407 7.527c-.919 4.59 6.394 6.303 7.437 1.193l1.329-7.251zm61.441-108.258c3.78-3.763-1.85-8.781-5.096-5.537l-5.538 5.262c-3.548 3.551 1.821 8.813 5.278 5.355l5.356-5.08zm23.149-18.297c3.58-2.143 1.057-8.385-3.934-6.396-2.155 1.347-4.496 3.06-6.563 4.591-4.022 3.028.583 8.995 4.467 6.058a212.92 212.92 0 0 1 6.03-4.253zm25.549-14.719c3.488-1.406 2.66-8.047-2.769-6.976-2.355.948-5.064 2.448-7.328 3.672-4.682 2.784-.306 8.935 3.517 6.64a139.99 139.99 0 0 1 6.58-3.336zm27.448-10.831c5.261-2.081 1.699-8.751-2.267-7.16a213.78 213.78 0 0 0-7.25 2.417c-4.956 1.959-1.744 8.781 2.509 7.068 2.326-.796 4.649-1.59 7.008-2.325zm28.732-6.671c5.229-1.04 3.302-8.322-1.179-7.404-2.509.367-5.05.795-7.542 1.316-4.896.979-3.366 8.322 1.436 7.373 2.417-.459 4.85-.918 7.285-1.285zm21.661-9.699c-4.696 0-4.801 7.496.354 7.496 6.026-.306 10.739-.092 16.705-.092 5.278 0 4.882-7.496.26-7.496-5.92 0-11.381-.215-17.319.092zM78.742 469.354a3.76 3.76 0 0 1-3.762-3.765 3.76 3.76 0 0 1 3.762-3.763h273.72a3.772 3.772 0 0 1 3.763 3.763 3.772 3.772 0 0 1-3.763 3.765H78.742zm160.276 16.645a3.76 3.76 0 0 1-3.762-3.765 3.76 3.76 0 0 1 3.762-3.763h189.418a3.772 3.772 0 0 1 3.766 3.763 3.772 3.772 0 0 1-3.766 3.765H239.018zm208.804 0a3.764 3.764 0 1 1 0-7.528h23.682a3.76 3.76 0 0 1 3.763 3.763 3.76 3.76 0 0 1-3.763 3.765h-23.682zm-379.864-.52a3.76 3.76 0 0 1-3.762-3.764c0-2.05 1.681-3.732 3.762-3.732h89.759c2.067 0 3.749 1.683 3.749 3.732a3.757 3.757 0 0 1-3.749 3.764H67.958zm268.333-78.975h19.154v-15.758h-19.154v15.758z" fill-rule="evenodd" clip-rule="evenodd" fill="#f2f2f2" class="fill-000000"></path></svg>