<svg width="1440" height="1024" viewBox="0 0 1440 1024" fill="none" xmlns="http://www.w3.org/2000/svg">
<path d="M1221.94 668.724C1224.54 666.212 1227.52 664.255 1230.62 662.567L1182.19 615.675C1180.19 613.744 1177.48 612.66 1174.66 612.662C1171.83 612.664 1169.12 613.752 1167.13 615.685C1165.13 617.618 1164.01 620.24 1164.02 622.972C1164.02 625.705 1165.14 628.324 1167.14 630.255L1215.47 677.024C1217.26 674.007 1219.43 671.219 1221.94 668.724Z" fill="#7CFC00" fill-opacity="0.45"/>
<path d="M1326.52 821.406C1312.32 821.406 1298.96 816.052 1288.89 806.332L1214.41 734.253C1204.36 724.513 1198.83 711.6 1198.83 697.844C1198.83 684.087 1204.36 671.175 1214.41 661.434C1233.69 642.776 1270.35 642.776 1289.64 661.434L1364.12 733.512C1374.19 743.253 1379.72 756.165 1379.72 769.922C1379.72 783.678 1374.19 796.591 1364.14 806.332C1354.1 816.072 1340.71 821.406 1326.52 821.406ZM1252.03 667.365C1243.62 667.257 1235.51 670.365 1229.45 676.014C1223.43 681.842 1220.11 689.606 1220.11 697.844C1220.11 706.081 1223.43 713.845 1229.45 719.694L1303.94 791.772C1316 803.428 1337.01 803.428 1349.07 791.772C1355.12 785.923 1358.44 778.159 1358.44 769.922C1358.44 761.684 1355.12 753.92 1349.1 748.072L1274.61 675.994C1268.55 670.36 1260.44 667.26 1252.03 667.365Z" fill="#7CFC00" fill-opacity="0.45"/>
<path opacity="0.4" d="M996.656 645.33C993.834 645.33 991.128 644.245 989.132 642.314C987.137 640.383 986.016 637.764 986.016 635.033C986.016 632.302 987.137 629.683 989.132 627.752C991.128 625.821 993.834 624.736 996.656 624.736C1076.82 624.736 1146.37 575.229 1169.74 501.565C1170.15 500.271 1170.81 499.067 1171.7 498.023C1172.59 496.979 1173.69 496.115 1174.92 495.48C1176.16 494.846 1177.51 494.452 1178.9 494.323C1180.3 494.194 1181.7 494.331 1183.04 494.728C1184.37 495.124 1185.62 495.771 1186.7 496.632C1187.78 497.494 1188.67 498.552 1189.32 499.747C1189.98 500.942 1190.39 502.251 1190.52 503.598C1190.65 504.945 1190.51 506.305 1190.1 507.599C1163.95 589.994 1086.23 645.33 996.656 645.33Z" fill="#7CFC00"/>
<path d="M996.656 697.844C855.838 697.844 741.281 586.988 741.281 450.719C741.281 314.45 855.838 203.594 996.656 203.594C1137.47 203.594 1252.03 314.45 1252.03 450.719C1252.03 586.988 1137.47 697.844 996.656 697.844ZM996.656 224.188C867.585 224.188 762.562 325.818 762.562 450.719C762.562 575.62 867.585 677.25 996.656 677.25C1125.73 677.25 1230.75 575.62 1230.75 450.719C1230.75 325.818 1125.73 224.188 996.656 224.188Z" fill="#7CFC00" fill-opacity="0.45"/>
<path d="M1188.19 461.016C1194.06 461.016 1198.83 456.406 1198.83 450.719C1198.83 445.032 1194.06 440.422 1188.19 440.422C1182.31 440.422 1177.55 445.032 1177.55 450.719C1177.55 456.406 1182.31 461.016 1188.19 461.016Z" fill="#7CFC00" fill-opacity="0.45"/>
</svg>
